<svg width="53" height="40" viewBox="0 0 53 40" fill="none" xmlns="http://www.w3.org/2000/svg">
<path d="M24.9387 0.00088728V11.8833C24.9387 15.2583 24.2784 18.6966 22.9578 22.1983C21.636 25.708 19.866 29.0372 17.6903 32.1054C15.4956 35.2042 13.0967 37.8358 10.4935 40L0 33.8898C1.85933 30.9921 3.5049 27.7818 4.93671 24.2589C6.36852 20.7361 7.08473 16.6475 7.08534 11.9932V0L24.9387 0.00088728ZM53 0.00088728V11.8833C53 15.2583 52.34 18.6966 51.02 22.1983C49.6965 25.7069 47.9249 29.0349 45.7479 32.1017C43.5532 35.2006 41.1355 37.8321 38.4949 39.9964L28.0097 33.8898C29.9065 30.9921 31.5708 27.7818 33.0026 24.2589C34.4344 20.7361 35.1503 16.6475 35.1503 11.9932V0L53 0.00088728Z" fill="white"/>
</svg>
