<svg width="53" height="40" viewBox="0 0 53 40" fill="none" xmlns="http://www.w3.org/2000/svg">
<path d="M0 39.9973V28.1127C0 24.7378 0.668128 21.2897 2.00438 17.7683C3.34104 14.2462 5.11667 10.9026 7.29022 7.81463C9.47909 4.69726 11.8543 2.09238 14.4158 0L24.8827 6.10722C22.8274 9.29244 21.1217 12.6852 19.7946 16.2281C18.4773 19.7495 17.8187 23.6744 17.8187 28.0027V39.9973H0ZM28.1145 39.9973V28.1127C28.1145 24.7378 28.7827 21.2897 30.1189 17.7683C31.4561 14.2459 33.2326 10.9022 35.4075 7.81463C37.597 4.69726 39.9722 2.09238 42.5331 0L53 6.10722C50.9419 9.29283 49.234 12.6866 47.9054 16.2308C46.5875 19.7522 45.9289 23.6771 45.9295 28.0055V40L28.1145 39.9973Z" fill="white"/>
</svg>
