<svg width="64" height="70" viewBox="0 0 64 70" fill="none" xmlns="http://www.w3.org/2000/svg">
<path d="M19.8821 33.6322C19.6413 34.7257 19.0351 35.7044 18.1638 36.4066C17.2924 37.1089 16.2079 37.4927 15.0892 37.4948C14.7888 37.4948 14.5006 37.6143 14.2882 37.8269C14.0757 38.0396 13.9564 38.328 13.9564 38.6288C13.9564 38.9296 14.0757 39.218 14.2882 39.4307C14.5006 39.6433 14.7888 39.7628 15.0892 39.7628C16.8046 39.7601 18.4625 39.1431 19.763 38.0233C21.0635 36.9035 21.9208 35.3549 22.1799 33.6574C24.3828 33.4211 26.4341 32.4224 27.9798 30.8336C28.1898 30.6187 28.3061 30.3292 28.3029 30.0286C28.2998 29.728 28.1775 29.441 27.963 29.2306C27.7484 29.0201 27.459 28.9035 27.1585 28.9064C26.858 28.9093 26.5709 29.0314 26.3603 29.246C25.6802 29.9454 24.8666 30.5008 23.9677 30.8791C23.0689 31.2574 22.1033 31.451 21.1282 31.4482C19.186 31.446 17.324 30.6727 15.9506 29.2979C14.5773 27.9231 13.8048 26.0592 13.8025 24.115C13.8025 23.8142 13.6832 23.5258 13.4707 23.3131C13.2583 23.1005 12.9701 22.981 12.6697 22.981C12.3695 22.9814 12.0817 23.101 11.8695 23.3136C11.6574 23.5263 11.5382 23.8145 11.5382 24.115C11.5412 26.444 12.3888 28.6927 13.9235 30.4432C15.4582 32.1937 17.5755 33.3269 19.8821 33.6322V33.6322ZM24.6778 43.4672C24.6778 43.1664 24.5585 42.878 24.346 42.6653C24.1336 42.4527 23.8454 42.3332 23.545 42.3332C21.0025 42.3362 18.5651 43.3483 16.7671 45.1476C14.9691 46.9469 13.9573 49.3866 13.9536 51.9316C13.9536 51.9862 13.9536 52.0408 13.9536 52.0954C13.5272 52.0369 13.0973 52.0074 12.6669 52.0072C12.3668 52.0072 12.079 52.1265 11.8668 52.3389C11.6546 52.5513 11.5354 52.8394 11.5354 53.1398C11.5353 53.2886 11.5644 53.4361 11.6212 53.5737C11.678 53.7112 11.7613 53.8362 11.8663 53.9416C11.9714 54.0469 12.0962 54.1304 12.2336 54.1874C12.3709 54.2445 12.5182 54.2738 12.6669 54.2738C14.6091 54.276 16.4711 55.0493 17.8445 56.4241C19.2178 57.7989 19.9904 59.6628 19.9926 61.607C19.9926 61.9077 20.112 62.1962 20.3244 62.4089C20.5368 62.6215 20.825 62.741 21.1254 62.741C21.4259 62.741 21.714 62.6215 21.9265 62.4089C22.1389 62.1962 22.2583 61.9077 22.2583 61.607C22.2561 59.6942 21.6838 57.8255 20.6148 56.2401C19.5457 54.6547 18.0284 53.4246 16.257 52.7072C16.2302 52.4495 16.2167 52.1907 16.2165 51.9316C16.2187 49.9874 16.9912 48.1235 18.3646 46.7487C19.7379 45.3739 21.5999 44.6006 23.5422 44.5984C23.6909 44.5988 23.8383 44.5698 23.9759 44.5131C24.1135 44.4565 24.2386 44.3733 24.344 44.2682C24.4495 44.1632 24.5332 44.0384 24.5905 43.9009C24.6478 43.7635 24.6774 43.6161 24.6778 43.4672V43.4672ZM63.3399 33.7918C63.3409 32.5212 63.0892 31.2632 62.5996 30.0909C62.1101 28.9187 61.3923 27.8557 60.4882 26.964C60.7765 26.0419 60.9232 25.0812 60.9231 24.115C60.9198 21.8874 60.1441 19.7301 58.7284 18.0114C57.3128 16.2927 55.3449 15.1193 53.1611 14.6916C53.5004 13.8421 53.6742 12.9353 53.6729 12.0204C53.6716 10.6149 53.2587 9.24053 52.4855 8.06735C51.7122 6.89416 50.6124 5.97357 49.322 5.4194C45.0648 2.0244 40.4061 0 36.8328 0C35.8887 0.00056824 34.9582 0.225506 34.1179 0.656305C33.2776 1.08711 32.5515 1.71146 31.9993 2.478C31.4476 1.71132 30.7217 1.08684 29.8816 0.656009C29.0415 0.22518 28.1112 0.000336212 27.1673 0C23.5925 0 18.9353 2.0244 14.6766 5.4194C13.3866 5.97393 12.2872 6.89465 11.5142 8.06778C10.7412 9.24092 10.3285 10.6151 10.3271 12.0204C10.3258 12.9353 10.4996 13.8421 10.839 14.6916C8.65495 15.1191 6.68699 16.2924 5.27127 18.0112C3.85555 19.7299 3.07992 21.8874 3.07689 24.115C3.07614 25.0813 3.22282 26.042 3.51184 26.964C2.60773 27.8557 1.88996 28.9187 1.40037 30.0909C0.910774 31.2632 0.659147 32.5212 0.660159 33.7918C0.661007 35.736 1.25484 37.6336 2.36222 39.2308C1.25343 40.8295 0.662195 42.7306 0.668559 44.6768C0.670231 46.3835 1.12602 48.059 1.98904 49.5309C2.85206 51.0028 4.09116 52.218 5.57893 53.0516C5.52699 53.4832 5.50083 53.9175 5.50061 54.3522C5.50421 56.6436 6.23433 58.8748 7.58578 60.7243C8.93722 62.5738 10.8402 63.9461 13.0207 64.6436C13.9696 66.2752 15.3299 67.6287 16.9656 68.5688C18.6012 69.5088 20.4548 70.0023 22.3408 70C24.3495 69.9983 26.318 69.4362 28.0254 68.3768C29.7327 67.3173 31.1112 65.8025 32.0063 64.0024C32.9018 65.8024 34.2807 67.3171 35.9882 68.3765C37.6957 69.4359 39.6643 69.9981 41.6732 70C43.5592 70.0023 45.4128 69.5088 47.0485 68.5688C48.6841 67.6287 50.0444 66.2752 50.9933 64.6436C53.1738 63.9461 55.0768 62.5738 56.4282 60.7243C57.7797 58.8748 58.5098 56.6436 58.5134 54.3522C58.5132 53.9175 58.487 53.4832 58.4351 53.0516C59.9216 52.2171 61.1594 51.0015 62.0214 49.5297C62.8834 48.0579 63.3385 46.3829 63.3399 44.6768C63.3455 42.7307 62.7543 40.8298 61.6462 39.2308C62.7506 37.6326 63.3415 35.7351 63.3399 33.7918V33.7918ZM22.3338 67.7334C20.7775 67.7342 19.2508 67.3082 17.9193 66.5016C16.5879 65.6951 15.5027 64.5387 14.7815 63.1582C14.7088 63.0201 14.6084 62.8985 14.4867 62.801C14.3649 62.7034 14.2244 62.632 14.0738 62.5912C12.2639 62.1021 10.6651 61.0304 9.52414 59.5414C8.38317 58.0523 7.76348 56.2288 7.7607 54.3522C7.76051 53.7762 7.81813 53.2016 7.93272 52.6372C7.98408 52.3844 7.9476 52.1217 7.82931 51.8925C7.71103 51.6633 7.51807 51.4815 7.2824 51.3772C5.98769 50.8009 4.8874 49.8616 4.11453 48.6728C3.34167 47.484 2.9293 46.0966 2.92725 44.6782C2.92359 43.3829 3.26593 42.1103 3.91883 40.992C5.66673 42.5401 7.92052 43.3937 10.2544 43.3916C10.5548 43.3916 10.8429 43.2721 11.0554 43.0595C11.2678 42.8468 11.3872 42.5584 11.3872 42.2576C11.3872 41.9568 11.2678 41.6684 11.0554 41.4557C10.8429 41.2431 10.5548 41.1236 10.2544 41.1236C8.31227 41.1217 6.45023 40.3487 5.07684 38.9742C3.70344 37.5997 2.93087 35.7359 2.92865 33.7918C2.92804 32.7178 3.16351 31.6569 3.61839 30.6843C4.07328 29.7117 4.73641 28.8511 5.56075 28.1638C5.74496 28.0099 5.87552 27.8014 5.9336 27.5684C5.99167 27.3353 5.97425 27.0899 5.88383 26.8674C5.52782 25.9935 5.34493 25.0587 5.34537 24.115C5.34759 22.1712 6.11998 20.3076 7.49307 18.9331C8.86617 17.5586 10.7278 16.7854 12.6697 16.7832C14.6118 16.7851 16.4738 17.5581 17.8472 18.9326C19.2206 20.3071 19.9932 22.1709 19.9954 24.115C19.9954 24.4158 20.1147 24.7042 20.3272 24.9169C20.5396 25.1295 20.8278 25.249 21.1282 25.249C21.4287 25.249 21.7168 25.1295 21.9293 24.9169C22.1417 24.7042 22.2611 24.4158 22.2611 24.115C22.2581 21.6766 21.3294 19.3305 19.663 17.5519C17.9966 15.7734 15.7172 14.6953 13.2864 14.5362C12.8312 13.7748 12.5919 12.9036 12.5942 12.0162C12.5954 11.0552 12.8776 10.1157 13.406 9.31336C13.9343 8.51105 14.6858 7.8811 15.5675 7.5012C15.6357 7.48117 15.7018 7.45444 15.7647 7.4214C16.32 7.21011 16.9091 7.10194 17.5031 7.1022C18.4262 7.09815 19.3314 7.35633 20.1137 7.84676C20.896 8.33719 21.5233 9.03974 21.9226 9.8728C21.9874 10.0068 22.078 10.1267 22.1892 10.2257C22.3004 10.3246 22.4299 10.4007 22.5705 10.4494C22.711 10.4982 22.8598 10.5187 23.0083 10.5099C23.1568 10.501 23.3021 10.4629 23.4359 10.3978C23.7061 10.2662 23.9131 10.0326 24.0115 9.74832C24.1098 9.46404 24.0914 9.15231 23.9603 8.8816C23.4921 7.92616 22.8193 7.0858 21.9896 6.42035C21.16 5.7549 20.194 5.28073 19.1604 5.0316C22.0513 3.2648 24.8946 2.2624 27.17 2.2624C28.151 2.26351 29.0915 2.6542 29.7851 3.34871C30.4786 4.04322 30.8685 4.9848 30.8693 5.9668V20.6458C29.8185 19.8071 28.514 19.3509 27.17 19.3522C26.8696 19.3522 26.5815 19.4717 26.369 19.6843C26.1566 19.897 26.0372 20.1854 26.0372 20.4862C26.037 20.6352 26.0662 20.7827 26.1231 20.9204C26.1799 21.058 26.2634 21.1831 26.3686 21.2885C26.4738 21.3938 26.5988 21.4773 26.7363 21.5343C26.8738 21.5912 27.0212 21.6204 27.17 21.6202C27.6564 21.6207 28.1379 21.7172 28.587 21.904C29.0361 22.0908 29.444 22.3643 29.7875 22.709C30.131 23.0536 30.4034 23.4626 30.589 23.9126C30.7746 24.3626 30.8698 24.8448 30.8693 25.3316V52.5812C29.4269 50.714 27.4126 49.3719 25.1351 48.7606C24.8449 48.6827 24.5356 48.7233 24.2753 48.8734C24.0149 49.0236 23.8247 49.271 23.7464 49.5614C23.6686 49.8518 23.7091 50.1611 23.8592 50.4216C24.0092 50.682 24.2563 50.8721 24.5463 50.9502C26.3571 51.4387 27.9569 52.5104 29.0987 53.9998C30.2405 55.4891 30.8607 57.3133 30.8637 59.1906C30.8611 61.4543 29.9621 63.6246 28.3637 65.2259C26.7653 66.8273 24.598 67.7289 22.3366 67.7334H22.3338ZM56.7204 51.3716C56.4852 51.4764 56.2927 51.6583 56.1747 51.8874C56.0567 52.1165 56.0203 52.379 56.0715 52.6316C56.1861 53.196 56.2437 53.7706 56.2435 54.3466C56.2407 56.2232 55.621 58.0467 54.4801 59.5358C53.3391 61.0248 51.7403 62.0965 49.9304 62.5856C49.7797 62.6264 49.6389 62.6978 49.5169 62.7953C49.395 62.8929 49.2943 63.0145 49.2213 63.1526C48.5004 64.5333 47.4152 65.6898 46.0837 66.4964C44.7522 67.3031 43.2254 67.7289 41.669 67.7278C39.4074 67.7245 37.2394 66.8236 35.6402 65.2228C34.041 63.622 33.1411 61.4517 33.1378 59.1878C33.1378 58.8686 33.1238 58.5536 33.0958 58.24C33.1233 58.1411 33.1374 58.0389 33.1378 57.9362V20.4862C33.1389 19.5042 33.5291 18.5628 34.2229 17.8685C34.9167 17.1743 35.8574 16.7839 36.8384 16.7832C37.1388 16.7832 37.427 16.6637 37.6394 16.4511C37.8518 16.2384 37.9712 15.95 37.9712 15.6492C37.9712 15.3484 37.8518 15.06 37.6394 14.8473C37.427 14.6347 37.1388 14.5152 36.8384 14.5152C35.4914 14.5139 34.184 14.971 33.1308 15.8116V5.9766C33.1319 4.99447 33.5221 4.05289 34.2159 3.35842C34.9096 2.66395 35.8502 2.27331 36.8314 2.2722C39.104 2.2722 41.9501 3.2746 44.841 5.0414C43.8073 5.28993 42.8412 5.76371 42.0116 6.42896C41.1819 7.09421 40.509 7.93453 40.0411 8.89C39.976 9.02401 39.9379 9.16955 39.9291 9.3183C39.9202 9.46705 39.9407 9.61609 39.9894 9.75691C40.0381 9.89772 40.1141 10.0275 40.2129 10.139C40.3118 10.2504 40.4316 10.3412 40.5656 10.4062C40.6993 10.4713 40.8446 10.5094 40.9931 10.5183C41.1416 10.5271 41.2904 10.5066 41.4309 10.4578C41.5715 10.4091 41.7011 10.333 41.8122 10.2341C41.9234 10.1351 42.014 10.0152 42.0788 9.8812C42.4781 9.04814 43.1054 8.3456 43.8877 7.85516C44.67 7.36473 45.5752 7.10655 46.4983 7.1106C47.0916 7.10917 47.6802 7.21591 48.2353 7.4256C48.2983 7.45864 48.3643 7.48537 48.4325 7.5054C49.3142 7.88521 50.0655 8.51518 50.5937 9.31754C51.1218 10.1199 51.4037 11.0595 51.4045 12.0204C51.4072 12.9076 51.1684 13.7789 50.7136 14.5404C48.2828 14.6995 46.0034 15.7776 44.337 17.5561C42.6707 19.3347 41.7419 21.6808 41.739 24.1192C41.7388 24.2682 41.7679 24.4157 41.8248 24.5534C41.8817 24.691 41.9651 24.8161 42.0703 24.9215C42.1756 25.0268 42.3005 25.1103 42.4381 25.1673C42.5756 25.2242 42.723 25.2534 42.8718 25.2532C43.0206 25.2532 43.1679 25.2239 43.3053 25.1669C43.4428 25.1099 43.5676 25.0264 43.6728 24.9211C43.778 24.8158 43.8615 24.6907 43.9184 24.5532C43.9753 24.4156 44.0046 24.2681 44.0046 24.1192C44.0069 22.1754 44.7792 20.3118 46.1523 18.9373C47.5254 17.5628 49.3871 16.7896 51.3289 16.7874C53.271 16.7893 55.1331 17.5623 56.5065 18.9368C57.8799 20.3113 58.6524 22.1751 58.6546 24.1192C58.6561 25.0625 58.4752 25.9972 58.1218 26.8716C58.0314 27.0941 58.0139 27.3395 58.072 27.5726C58.1301 27.8056 58.2607 28.0141 58.4449 28.168C59.2692 28.8553 59.9323 29.7159 60.3872 30.6885C60.8421 31.6611 61.0776 32.7221 61.077 33.796C61.0747 35.7401 60.3022 37.6039 58.9288 38.9784C57.5554 40.3529 55.6933 41.1259 53.7513 41.1278C53.4508 41.1278 53.1627 41.2473 52.9502 41.4599C52.7378 41.6726 52.6184 41.961 52.6184 42.2618C52.6184 42.5626 52.7378 42.851 52.9502 43.0637C53.1627 43.2763 53.4508 43.3958 53.7513 43.3958C56.0848 43.3972 58.338 42.5431 60.0854 40.9948C60.7383 42.1131 61.0806 43.3857 61.077 44.681C61.0732 46.0981 60.6598 47.4838 59.8868 48.671C59.1138 49.8582 58.0141 50.7961 56.7204 51.3716V51.3716ZM51.3345 36.281C50.2161 36.2797 49.1316 35.8967 48.26 35.1952C47.3884 34.4937 46.7817 33.5157 46.5402 32.4226C48.8472 32.117 50.9647 30.9833 52.4994 29.2323C54.0341 27.4812 54.8815 25.232 54.8841 22.9026C54.8841 22.6018 54.7648 22.3134 54.5523 22.1007C54.3399 21.8881 54.0517 21.7686 53.7513 21.7686C53.4508 21.7686 53.1627 21.8881 52.9502 22.1007C52.7378 22.3134 52.6184 22.6018 52.6184 22.9026C52.6173 24.8464 51.846 26.7105 50.4737 28.0857C49.1014 29.461 47.2402 30.2353 45.2983 30.2386C44.323 30.2416 43.3571 30.0481 42.4581 29.6698C41.559 29.2915 40.7451 28.736 40.0649 28.0364C39.8545 27.8219 39.5676 27.6998 39.2674 27.6969C38.9671 27.694 38.678 27.8106 38.4635 28.021C38.3571 28.1251 38.2723 28.2491 38.2139 28.3861C38.1555 28.523 38.1246 28.6701 38.1231 28.819C38.1215 28.9679 38.1493 29.1156 38.2048 29.2538C38.2604 29.3919 38.3426 29.5177 38.4467 29.624C39.9905 31.2123 42.0399 32.211 44.241 32.4478C44.5005 34.1456 45.3583 35.6945 46.6593 36.8143C47.9603 37.9341 49.6187 38.5509 51.3345 38.5532C51.4834 38.5534 51.6308 38.5242 51.7683 38.4673C51.9058 38.4103 52.0308 38.3268 52.136 38.2215C52.2412 38.1161 52.3247 37.991 52.3815 37.8534C52.4384 37.7157 52.4676 37.5682 52.4674 37.4192C52.4674 37.1184 52.348 36.83 52.1356 36.6173C51.9231 36.4047 51.635 36.2852 51.3345 36.2852V36.281ZM47.7094 49.581C47.2795 49.582 46.8502 49.6114 46.4242 49.6692C46.4242 49.6146 46.4242 49.56 46.4242 49.5054C46.4212 46.9599 45.4097 44.5195 43.6116 42.7196C41.8135 40.9197 39.3756 39.9072 36.8328 39.9042C36.684 39.9042 36.5367 39.9335 36.3992 39.9905C36.2618 40.0475 36.1369 40.131 36.0317 40.2363C35.9265 40.3416 35.8431 40.4667 35.7862 40.6042C35.7292 40.7418 35.6999 40.8893 35.6999 41.0382C35.6999 41.339 35.8193 41.6274 36.0317 41.8401C36.2442 42.0527 36.5323 42.1722 36.8328 42.1722C38.775 42.1744 40.637 42.9477 42.0104 44.3225C43.3837 45.6973 44.1563 47.5612 44.1585 49.5054C44.1582 49.7645 44.1447 50.0233 44.1179 50.281C42.3465 50.9984 40.8292 52.2285 39.7602 53.8139C38.6911 55.3993 38.1188 57.268 38.1167 59.1808C38.1167 59.4815 38.236 59.77 38.4485 59.9827C38.6609 60.1953 38.949 60.3148 39.2495 60.3148C39.5499 60.3148 39.8381 60.1953 40.0505 59.9827C40.263 59.77 40.3823 59.4815 40.3823 59.1808C40.3846 57.237 41.1569 55.3734 42.53 53.9989C43.9031 52.6244 45.7648 51.8512 47.7066 51.849C48.0071 51.849 48.2952 51.7295 48.5077 51.5169C48.7201 51.3042 48.8395 51.0158 48.8395 50.715C48.8373 50.4163 48.7173 50.1306 48.5056 49.92C48.294 49.7095 48.0078 49.5912 47.7094 49.5908V49.581Z" fill="#32E622"/>
</svg>
