<svg width="70" height="70" viewBox="0 0 70 70" fill="none" xmlns="http://www.w3.org/2000/svg">
<path d="M60.8099 70C60.5807 70.0004 60.3537 69.9555 60.1419 69.868C59.9302 69.7804 59.7378 69.6519 59.5759 69.4898L41.7144 51.6441C36.5869 54.6334 30.6383 55.9096 24.7346 55.2871C18.4316 54.6078 12.5499 51.7982 8.06319 47.3235C2.80793 42.0728 -0.0550484 35.0392 0.000801964 27.5194C0.0566524 19.9995 3.02602 13.0018 8.36239 7.82553C13.5286 2.79198 20.464 -0.0174895 27.68 8.19292e-05H27.8781C35.173 0.0338098 42.1575 2.95308 47.3034 8.11915C51.7824 12.6012 54.5945 18.4774 55.2741 24.7745C55.8972 30.6731 54.6198 36.6164 51.6279 41.7394L69.4893 59.5851C69.652 59.7465 69.781 59.9386 69.8686 60.1503C69.9563 60.362 70.001 60.589 70 60.8181C70.0008 61.0469 69.956 61.2736 69.8684 61.4851C69.7807 61.6965 69.6519 61.8884 69.4893 62.0497L62.0426 69.4898C61.8809 69.6517 61.6887 69.7802 61.4772 69.8677C61.2657 69.9553 61.0389 70.0002 60.8099 70V70ZM41.8753 49.2406C42.0151 49.2405 42.1534 49.2679 42.2826 49.3213C42.4117 49.3746 42.5291 49.4529 42.628 49.5515L60.8099 67.7161L67.7141 60.8181L49.5321 42.6534C49.3614 42.4832 49.2537 42.26 49.2267 42.0205C49.1996 41.781 49.2548 41.5395 49.3832 41.3355C55.786 31.169 54.3113 18.1275 45.7928 9.6218C35.9525 -0.209837 19.8224 -0.332068 9.83845 9.35608L9.09776 8.59346L9.83845 9.35608C4.91829 14.139 2.17498 20.5907 2.12577 27.5406C2.07657 34.4905 4.71882 40.9754 9.5685 45.8275C18.079 54.3305 31.1347 55.8066 41.3102 49.4147C41.4781 49.304 41.6742 49.2436 41.8753 49.2406ZM27.6826 46.6246C25.197 46.6315 22.7347 46.1457 20.4382 45.1954C18.1417 44.2451 16.0567 42.8492 14.3038 41.0883C12.5412 39.3372 11.1437 37.254 10.1923 34.9596C9.24094 32.6651 8.75454 30.2049 8.76132 27.7213C8.7544 25.2377 9.24071 22.7774 10.1921 20.483C11.1435 18.1885 12.5411 16.1054 14.3038 14.3543C21.6801 6.9832 33.6853 6.98187 41.0628 14.3543C42.8257 16.1054 44.2233 18.1885 45.1749 20.4829C46.1265 22.7774 46.6132 25.2377 46.6066 27.7213C46.6134 30.2049 46.1271 32.6653 45.176 34.9599C44.2249 37.2546 42.8278 39.338 41.0655 41.0897C39.3118 42.8505 37.2261 44.2463 34.9289 45.1964C32.6318 46.1465 30.1688 46.6319 27.6826 46.6246V46.6246ZM27.6826 10.9491C25.4774 10.9452 23.2931 11.3767 21.2553 12.2187C19.2174 13.0607 17.3662 14.2967 15.8078 15.8556C12.6629 19.0046 10.8968 23.2715 10.8968 27.72C10.8968 32.1685 12.6629 36.4353 15.8078 39.5844C17.3633 41.1478 19.2139 42.3873 21.2522 43.2311C23.2906 44.0749 25.4763 44.5063 27.6826 44.5002C29.8894 44.5063 32.0754 44.0749 34.114 43.2308C36.1526 42.3868 38.0033 41.1469 39.5588 39.583C42.7043 36.4343 44.4709 32.1674 44.4709 27.7187C44.4709 23.2699 42.7043 19.003 39.5588 15.8543C38.0001 14.2957 36.1485 13.0601 34.1104 12.2185C32.0723 11.377 29.8879 10.946 27.6826 10.9504V10.9491Z" fill="#32E622"/>
</svg>
