<svg width="70" height="70" viewBox="0 0 70 70" fill="none" xmlns="http://www.w3.org/2000/svg">
<path d="M68.2227 28.7105H63.4307C62.6986 25.3843 61.3815 22.2146 59.541 19.3491L62.9371 15.9524C63.1028 15.7879 63.2341 15.592 63.3236 15.3763C63.413 15.1606 63.4587 14.9293 63.458 14.6957C63.4588 14.462 63.4131 14.2304 63.3237 14.0145C63.2343 13.7985 63.1029 13.6025 62.9371 13.4377L56.5564 7.05593C56.3916 6.89025 56.1956 6.7589 55.9797 6.66947C55.7638 6.58005 55.5323 6.53432 55.2986 6.53494C55.0651 6.5342 54.8338 6.57987 54.6181 6.66931C54.4024 6.75875 54.2067 6.89017 54.0422 7.05593L50.6461 10.4526C47.7812 8.61385 44.6132 7.29719 41.2891 6.56365V1.77766C41.2891 1.54421 41.2431 1.31305 41.1538 1.09738C41.0645 0.881702 40.9335 0.685735 40.7685 0.520664C40.6034 0.355594 40.4075 0.224651 40.1919 0.135316C39.9762 0.04598 39.7451 0 39.5117 0H30.4883C30.2549 0 30.0238 0.04598 29.8081 0.135316C29.5925 0.224651 29.3966 0.355594 29.2315 0.520664C29.0665 0.685735 28.9355 0.881702 28.8462 1.09738C28.7569 1.31305 28.7109 1.54421 28.7109 1.77766V6.56365C25.3858 7.29549 22.2171 8.61226 19.3525 10.4526L15.9564 7.05593C15.7916 6.89025 15.5956 6.7589 15.3797 6.66947C15.1638 6.58005 14.9323 6.53432 14.6986 6.53494C14.4651 6.5342 14.2338 6.57987 14.0181 6.66931C13.8024 6.75875 13.6067 6.89017 13.4422 7.05593L7.06016 13.4377C6.89493 13.6029 6.76388 13.799 6.6745 14.0149C6.58512 14.2307 6.53917 14.4621 6.53926 14.6957C6.53943 15.1671 6.7268 15.6192 7.06016 15.9524L10.4576 19.3491C8.61511 22.2142 7.29624 25.3839 6.5625 28.7105H1.77734C1.30596 28.7105 0.853889 28.8978 0.520573 29.2312C0.187256 29.5646 0 30.0167 0 30.4882V39.5132C0 39.9847 0.187256 40.4368 0.520573 40.7702C0.853889 41.1036 1.30596 41.2909 1.77734 41.2909H6.5625C7.29563 44.6159 8.61158 47.7848 10.4494 50.6509L7.05332 54.0476C6.8881 54.2128 6.75705 54.4089 6.66767 54.6248C6.57829 54.8406 6.53233 55.072 6.53243 55.3056C6.5326 55.777 6.71997 56.2291 7.05332 56.5623L13.4354 62.9441C13.5998 63.1098 13.7956 63.2413 14.0113 63.3307C14.227 63.4201 14.4583 63.4658 14.6918 63.4651C14.9255 63.4657 15.157 63.42 15.3729 63.3305C15.5888 63.2411 15.7848 63.1098 15.9496 62.9441L19.3443 59.5488C22.2121 61.3885 25.3834 62.7047 28.7109 63.4364V68.2223C28.7109 68.6938 28.8982 69.146 29.2315 69.4793C29.5648 69.8127 30.0169 70 30.4883 70H39.5117C39.9831 70 40.4352 69.8127 40.7685 69.4793C41.1018 69.146 41.2891 68.6938 41.2891 68.2223V63.4364C44.6138 62.7027 47.7825 61.3865 50.6488 59.5488L54.0449 62.9441C54.2094 63.1098 54.4052 63.2413 54.6209 63.3307C54.8366 63.4201 55.0679 63.4658 55.3014 63.4651C55.535 63.4657 55.7665 63.42 55.9824 63.3305C56.1983 63.2411 56.3944 63.1098 56.5592 62.9441L62.9398 56.5623C63.1055 56.3977 63.2369 56.2019 63.3263 55.9862C63.4157 55.7705 63.4614 55.5392 63.4607 55.3056C63.4615 55.0719 63.4159 54.8403 63.3264 54.6244C63.237 54.4084 63.1056 54.2124 62.9398 54.0476L59.5451 50.6523C61.3823 47.7855 62.6978 44.6161 63.4307 41.2909H68.2227C68.694 41.2909 69.1461 41.1036 69.4794 40.7702C69.8127 40.4368 70 39.9847 70 39.5132V30.4882C70 30.2547 69.954 30.0236 69.8647 29.8079C69.7754 29.5922 69.6445 29.3963 69.4794 29.2312C69.3144 29.0661 69.1185 28.9352 68.9028 28.8458C68.6872 28.7565 68.4561 28.7105 68.2227 28.7105V28.7105ZM63.5004 40.9668L62.4299 40.7439L63.5018 40.964L63.5004 40.9668ZM67.8125 39.103H63.0998C62.693 39.1043 62.2989 39.2445 61.9827 39.5004C61.6664 39.7563 61.447 40.1125 61.3607 40.5101V40.5196C60.6745 43.8019 59.3758 46.9254 57.5326 49.7265C57.3069 50.068 57.2059 50.477 57.2468 50.8843C57.2876 51.2917 57.4678 51.6724 57.7568 51.9623L61.0996 55.3056L55.2973 61.1076L51.9531 57.7656C51.6642 57.4772 51.2848 57.2971 50.8787 57.2555C50.4726 57.2139 50.0646 57.3134 49.7232 57.5373C46.9197 59.3808 43.794 60.6797 40.5098 61.3661C40.1118 61.4526 39.7553 61.6725 39.4992 61.9893C39.2431 62.3061 39.1028 62.7008 39.1016 63.1082V67.819H30.8984V63.1082C30.8969 62.6993 30.7555 62.3033 30.4979 61.9859C30.2402 61.6685 29.8818 61.4488 29.482 61.3633C26.1973 60.6786 23.0713 59.3795 20.2686 57.5345C19.9255 57.3132 19.5171 57.2157 19.1111 57.2582C18.705 57.3007 18.3257 57.4807 18.0359 57.7684L14.6986 61.1063L8.89629 55.3043L12.2377 51.9623C12.5254 51.6727 12.7052 51.2932 12.747 50.8871C12.7888 50.4809 12.6901 50.0728 12.4674 49.7306C10.6234 46.927 9.32471 43.8006 8.63926 40.5155C8.5535 40.1163 8.33388 39.7585 8.01681 39.5013C7.69975 39.2441 7.30431 39.1031 6.89609 39.1016H2.1875V30.897H6.89746C7.30552 30.8945 7.70049 30.7527 8.01699 30.4951C8.33349 30.2375 8.55255 29.8795 8.63789 29.4804C9.32089 26.1928 10.6198 23.0643 12.466 20.2598C12.6838 19.9157 12.7784 19.5079 12.7345 19.1031C12.6905 18.6982 12.5106 18.3202 12.224 18.0309L8.88809 14.6957L14.6959 8.89922L18.0318 12.2357C18.3229 12.5232 18.7031 12.7029 19.1099 12.7454C19.5166 12.7879 19.9258 12.6906 20.2699 12.4696C23.0727 10.6236 26.1992 9.32449 29.4848 8.64078C29.8847 8.5556 30.2433 8.33573 30.5006 8.01789C30.7579 7.70006 30.8983 7.30353 30.8984 6.89457V2.18242H39.1016V6.89457C39.1033 7.30307 39.2447 7.69869 39.5024 8.01563C39.7601 8.33257 40.1185 8.55173 40.518 8.63668C43.8023 9.32156 46.9277 10.6206 49.7301 12.4655L50.1908 12.7663L50.2031 12.7759C50.4147 12.9085 50.665 12.9656 50.9131 12.938C51.1613 12.9105 51.3929 12.7999 51.5703 12.6241L55.2986 8.89922L61.101 14.7026L57.7637 18.0391C57.4759 18.33 57.2959 18.7104 57.2537 19.1174C57.2114 19.5245 57.3093 19.9338 57.5312 20.2776C59.3767 23.0805 60.6755 26.2071 61.3594 29.4927C61.4448 29.8912 61.6638 30.2485 61.9801 30.5054C62.2964 30.7623 62.691 30.9034 63.0984 30.9052H67.8125V39.103ZM54.6684 28.9348C54.2896 27.7083 53.7961 26.5202 53.1945 25.3863C53.1057 25.2167 53.0086 25.0403 52.902 24.853C51.0614 21.6169 48.3825 18.9371 45.1473 17.0956C44.9559 16.9848 44.7795 16.8891 44.6182 16.8043C43.4855 16.2003 42.298 15.7054 41.0717 15.3261C40.8803 15.266 40.6807 15.2072 40.4852 15.1552C38.6987 14.6614 36.8535 14.4121 35 14.4141C33.1488 14.4126 31.306 14.6619 29.5217 15.1552C29.318 15.2099 29.1115 15.2687 28.9365 15.3261C27.7073 15.7029 26.517 16.1965 25.3818 16.8002C25.2109 16.8891 25.0346 16.9848 24.8486 17.0929C21.6125 18.9329 18.9329 21.6125 17.0926 24.8489C16.9823 25.0403 16.8852 25.2167 16.8014 25.3781C16.1999 26.5112 15.7073 27.6989 15.3303 28.9252C15.2688 29.1153 15.2113 29.3163 15.158 29.5105C14.6632 31.2985 14.413 33.1454 14.4143 35.0007C14.412 36.8546 14.6618 38.7002 15.1566 40.4868C15.2113 40.6906 15.2687 40.897 15.3262 41.0721C15.7046 42.3009 16.198 43.4913 16.8 44.6274C16.8889 44.7969 16.9859 44.9733 17.0939 45.1607C18.9336 48.397 21.6122 51.077 24.8473 52.9181C25.0387 53.0289 25.215 53.1246 25.3764 53.2094C26.5095 53.8126 27.6975 54.3067 28.9242 54.6848C29.1143 54.745 29.3152 54.8038 29.5094 54.8557C31.2981 55.3467 33.1451 55.5928 35 55.5873C36.8508 55.588 38.6931 55.3382 40.477 54.8448C40.6807 54.7901 40.8871 54.7313 41.0607 54.6739C42.2875 54.298 43.4755 53.8058 44.6086 53.2039C44.7795 53.115 44.9559 53.0193 45.1432 52.9113C48.3787 51.0704 51.0581 48.391 52.8992 45.1552C53.0086 44.9638 53.1057 44.7874 53.1891 44.626C53.7925 43.4918 54.2864 42.3027 54.6643 41.0748C54.7258 40.8861 54.7832 40.6865 54.8379 40.4841C55.3316 38.6982 55.5813 36.8536 55.5803 35.0007C55.5818 33.1487 55.3325 31.3051 54.8393 29.52C54.7846 29.3163 54.7258 29.1153 54.6684 28.9348ZM52.7283 39.9029V39.9125C52.6832 40.0848 52.634 40.253 52.5807 40.4212C52.2412 41.5216 51.7976 42.5871 51.2559 43.6032C51.182 43.7399 51.1 43.8958 51.0029 44.0654C49.3551 46.9624 46.9561 49.3609 44.059 51.0078C43.8949 51.1022 43.7445 51.1856 43.5928 51.2635C42.5768 51.8045 41.5115 52.2473 40.4113 52.5858C40.2514 52.6364 40.0832 52.6856 39.9027 52.7349C38.306 53.1768 36.6568 53.4004 35 53.3994C33.3404 53.4002 31.6883 53.1757 30.0891 52.7321C29.9168 52.6856 29.7486 52.6364 29.5791 52.5831C28.4791 52.2436 27.4139 51.8004 26.3977 51.2594C26.2609 51.1842 26.1051 51.1022 25.9369 51.0051C23.0402 49.3579 20.642 46.9588 18.9957 44.0613C18.9 43.8958 18.818 43.7468 18.7387 43.595C18.1984 42.578 17.7557 41.5121 17.4166 40.4116C17.366 40.253 17.3182 40.0848 17.2689 39.9029C16.827 38.3064 16.6035 36.6573 16.6045 35.0007C16.6035 33.3427 16.827 31.6923 17.2689 30.0944C17.3154 29.9221 17.3633 29.7539 17.418 29.5857C17.7565 28.4847 18.1997 27.4187 18.7414 26.4023C18.8152 26.2587 18.8973 26.1097 18.9957 25.9401C20.6426 23.0429 23.0412 20.6443 25.9383 18.9977C26.1023 18.9033 26.2527 18.8213 26.4045 18.742C27.4209 18.2007 28.4867 17.758 29.5873 17.4197C29.7459 17.3691 29.9141 17.3198 30.0945 17.2706C31.692 16.8271 33.3421 16.6021 35 16.6019C36.66 16.6007 38.3125 16.8248 39.9123 17.2679C40.0832 17.3144 40.2514 17.3636 40.4209 17.4169C41.5201 17.7579 42.5844 18.2025 43.5996 18.7447C43.7363 18.8199 43.8922 18.902 44.0617 18.999C46.9579 20.647 49.3559 23.0459 51.0029 25.9428C51.0973 26.1083 51.1793 26.2574 51.2586 26.4091C51.7987 27.4248 52.2413 28.4893 52.5807 29.5884C52.6313 29.747 52.6805 29.9152 52.7283 30.0971C53.1709 31.694 53.3944 33.3436 53.3928 35.0007C53.3944 36.6573 53.1709 38.3065 52.7283 39.9029V39.9029ZM41.1988 31.4618H38.0871L40.3826 23.8233C40.5117 23.394 40.4849 22.9328 40.3067 22.5214C40.1286 22.1099 39.8106 21.7748 39.4092 21.5753C39.147 21.4437 38.8576 21.3753 38.5643 21.3756C38.2653 21.3756 37.9705 21.4462 37.7039 21.5816C37.4374 21.7171 37.2066 21.9135 37.0303 22.1551L27.2617 35.5217C27.055 35.8051 26.9306 36.1401 26.9024 36.4898C26.8741 36.8395 26.9431 37.1902 27.1018 37.5031C27.2605 37.816 27.5028 38.0789 27.8018 38.2626C28.1008 38.4463 28.4448 38.5436 28.7957 38.5437H31.9074L29.6119 46.1808C29.4825 46.6101 29.5093 47.0714 29.6874 47.4829C29.8656 47.8944 30.1837 48.2295 30.5854 48.4288C30.8476 48.5604 31.1369 48.6288 31.4303 48.6285C31.7292 48.6284 32.024 48.5578 32.2905 48.4223C32.5571 48.2869 32.7879 48.0905 32.9643 47.849L42.7328 34.4783C42.9399 34.1951 43.0644 33.86 43.0927 33.5102C43.1209 33.1605 43.0517 32.8097 42.8928 32.4969C42.7331 32.1851 42.4905 31.9234 42.1916 31.7408C41.8926 31.5581 41.5491 31.4616 41.1988 31.4618V31.4618ZM31.4303 46.7319L34.4627 36.6471H28.7957L38.5643 23.2764L35.5318 33.3611H41.1988L31.4303 46.7319Z" fill="#32E622"/>
</svg>
